<?xml version="1.0" encoding="UTF-8"?>
<svg version="1.1" xmlns="http://www.w3.org/2000/svg" width="4188" height="696">
<path d="M0 0 C48.18 0 96.36 0 146 0 C146.04026156 66.51519981 146.04026156 66.51519981 146.05130005 87.10354614 C146.05169472 87.8378102 146.05208938 88.57207426 146.05249601 89.32858875 C146.06575351 114.0606009 146.07625178 138.79261343 146.08468628 163.52462769 C146.08496239 164.33218952 146.08523851 165.13975135 146.08552299 165.97178475 C146.0915097 183.52497909 146.09704993 201.07817354 146.10213066 218.63136817 C146.10462519 227.24024807 146.10721832 235.84912795 146.10986328 244.45800781 C146.1101248 245.31466566 146.11038632 246.17132351 146.11065576 247.05394069 C146.11916872 274.78871033 146.13418405 302.52347179 146.15259444 330.25823648 C146.1714891 358.77453309 146.18377771 387.29082518 146.18782998 415.80712794 C146.18840624 419.84076755 146.18905751 423.87440714 146.18975449 427.90804672 C146.18995676 429.09878905 146.18995676 429.09878905 146.19016311 430.31358678 C146.19252066 443.0591204 146.20178085 455.80463997 146.21366407 468.55016788 C146.22548047 481.383648 146.22992551 494.21711429 146.22700275 507.05059965 C146.22562151 513.99595398 146.22737875 520.94127092 146.23841095 527.88661766 C146.24821216 534.25817984 146.24859072 540.62967382 146.24179779 547.00123928 C146.24095941 549.29367613 146.24343787 551.5861174 146.24976636 553.87854566 C146.29749483 572.25154564 145.95375909 590.9000123 141.75 608.875 C141.53311523 609.82640869 141.31623047 610.77781738 141.09277344 611.75805664 C134.59441992 639.15420917 120.26973594 663.20151788 95.96289062 678.26220703 C65.63382218 696.16536884 34.99182547 696 0 696 C0 466.32 0 236.64 0 0 Z " fill="#1866FC" transform="translate(199,0)"/>
<path d="M0 0 C0.65226562 0.53238281 1.30453125 1.06476563 1.9765625 1.61328125 C6.64386138 5.42730743 9.89358437 9.30695356 14 14 C14.33 0.14 14.66 -13.72 15 -28 C36.45 -28 57.9 -28 80 -28 C80.04414639 13.7166378 80.08105335 55.43325344 80.10213066 97.14990794 C80.10463187 102.08244192 80.10722054 107.01497585 80.10986328 111.94750977 C80.11065021 113.42038823 80.11065021 113.42038823 80.11145304 114.92302182 C80.12013975 130.79198279 80.13590012 146.66092918 80.15430559 162.52988151 C80.173053 178.83040123 80.18412693 195.13091334 80.18817699 211.43144339 C80.19091203 221.47800779 80.19952935 231.52453093 80.21583293 241.57108261 C80.22645966 248.47389457 80.22958784 255.37668541 80.22700275 262.27950493 C80.22573026 266.25343487 80.22758749 270.22729306 80.23841095 274.20121002 C80.29016843 294.21051751 80.24094773 313.952455 75.375 333.5 C75.11630127 334.5511499 74.85760254 335.6022998 74.59106445 336.68530273 C69.51986126 356.35655516 60.50419557 375.69350366 47 391 C46.30261719 391.81726563 45.60523437 392.63453125 44.88671875 393.4765625 C18.00574961 424.32044539 -18.17357911 437.60002298 -58.203125 440.66796875 C-101.79452182 443.49895651 -147.62064844 433.20899128 -181.24609375 404.2421875 C-184.25486623 401.58247348 -187.1374661 398.8164316 -190 396 C-190.70511719 395.319375 -191.41023438 394.63875 -192.13671875 393.9375 C-208.23876971 377.21488318 -219 352.22148166 -219 329 C-198.21 329 -177.42 329 -156 329 C-152.04 337.415 -152.04 337.415 -148 346 C-134.6060007 365.01083771 -114.66659216 376.46054717 -92 381 C-64.68729433 385.36047458 -38.99511215 381.88120362 -16.0625 366.125 C1.39234486 352.64191624 10.00822673 332.98712545 13.39575195 311.58959961 C14.93461307 299.59001184 14.3171291 287.24378845 14.20599365 275.16473389 C14.17487063 271.41651537 14.16151168 267.66823336 14.14648438 263.91992188 C14.11465973 256.61311146 14.06370741 249.30660958 14 242 C13.40469482 242.74113037 12.80938965 243.48226074 12.19604492 244.24584961 C11.40302979 245.22561768 10.61001465 246.20538574 9.79296875 247.21484375 C9.01203857 248.18284912 8.2311084 249.15085449 7.42651367 250.14819336 C-8.46830923 268.82888823 -32.50266667 281.84894841 -56 288 C-57.00788574 288.26466064 -57.00788574 288.26466064 -58.03613281 288.53466797 C-93.03304114 297.1431225 -131.91984057 289.78744606 -162.6875 271.75 C-170.10778745 267.23540396 -176.64057982 261.89409675 -183 256 C-183.54398438 255.49984375 -184.08796875 254.9996875 -184.6484375 254.484375 C-214.70734699 226.54229012 -232.03155013 185.73580348 -234.10772705 144.88011169 C-234.16255127 142.76861189 -234.19018046 140.65904261 -234.203125 138.546875 C-234.21018463 137.77289871 -234.21724426 136.99892242 -234.22451782 136.20149231 C-234.45381486 103.67043354 -234.45381486 103.67043354 -231 88 C-230.80664062 87.09362793 -230.61328125 86.18725586 -230.4140625 85.25341797 C-224.39373724 57.83213707 -212.74205008 33.90234869 -194 13 C-193.12914929 11.95094683 -192.26194373 10.89885686 -191.3984375 9.84375 C-188.24178059 6.1010037 -184.77337347 3.1035075 -181 0 C-180.08476562 -0.76441406 -179.16953125 -1.52882812 -178.2265625 -2.31640625 C-127.11204694 -43.45264736 -49.59166457 -43.75237301 0 0 Z M-135 46 C-136.43859375 47.13695312 -136.43859375 47.13695312 -137.90625 48.296875 C-141.20625425 51.05144966 -143.81953589 54.16674522 -146.4375 57.5625 C-146.91340576 58.17891357 -147.38931152 58.79532715 -147.87963867 59.43041992 C-167.26713313 84.96829392 -171.85367413 116.98897004 -167.74609375 148.2890625 C-163.72536049 175.36839088 -151.02985873 200.24011688 -129.29589844 217.34082031 C-109.63011939 231.84026106 -85.30956283 236.94102301 -61.25390625 233.37890625 C-38.15461797 229.22683833 -17.63611937 215.79406623 -4.03051758 196.69482422 C13.95491728 170.25674934 19.49225923 135.8766042 13.8125 104.5625 C9.8084798 86.12924574 2.58141496 69.19977124 -10 55 C-10.53882812 54.319375 -11.07765625 53.63875 -11.6328125 52.9375 C-25.90828504 35.28280932 -48.57763078 26.79625475 -70.46875 24.296875 C-93.96785421 22.32128659 -117.21970311 30.75485141 -135 46 Z " fill="#FFFFFF" transform="translate(2623,211)"/>
<path d="M0 0 C8.86467706 3.57017921 8.86467706 3.57017921 17.97265625 3.30078125 C18.9471875 2.58341797 18.9471875 2.58341797 19.94140625 1.8515625 C24.36989371 -0.96937629 28.15407385 -2.20435803 33.44140625 -1.8359375 C36.85372031 -0.50892648 39.40179646 1.13765598 42.44140625 3.1640625 C43.09367187 2.81472656 43.7459375 2.46539062 44.41796875 2.10546875 C53.90882835 -2.8359375 53.90882835 -2.8359375 58.44140625 -2.8359375 C61.97046692 -1.23181902 63.26913533 -0.09434388 65.44140625 3.1640625 C65.44140625 4.1540625 65.44140625 5.1440625 65.44140625 6.1640625 C66.59640625 5.6690625 67.75140625 5.1740625 68.94140625 4.6640625 C74.33714925 2.6585651 78.78805064 2.31724688 84.37890625 4.1015625 C87.10768099 6.83033724 87.43040731 8.78540049 87.6328125 12.58203125 C86.37559943 29.54157899 72.03707537 45.39413134 59.94140625 56.2890625 C59.14734375 56.97226563 58.35328125 57.65546875 57.53515625 58.359375 C55.75138921 59.89687569 54.07901286 61.4739685 52.44140625 63.1640625 C57.71094539 67.08818739 62.98546622 70.94204912 68.56640625 74.4140625 C87.20454598 86.11584909 104.92193354 99.6356067 121.44140625 114.1640625 C122.36566406 114.97617187 123.28992187 115.78828125 124.2421875 116.625 C138.39127827 129.34548272 152.43103605 142.57664323 163.44140625 158.1640625 C163.88307129 158.78796875 164.32473633 159.411875 164.77978516 160.0546875 C167.78976142 164.35005141 170.65867902 168.71863242 173.44140625 173.1640625 C173.95574219 173.96585938 174.47007812 174.76765625 175 175.59375 C185.57646697 194.11080431 187.08680196 221.19421071 182.41796875 241.63671875 C178.31975459 256.43946831 171.61956425 268.70486047 161.44140625 280.1640625 C160.53648437 281.19466797 160.53648437 281.19466797 159.61328125 282.24609375 C130.85415677 312.94333314 82.46894304 326.32736098 41.75390625 327.7265625 C40.55781738 327.7682959 39.36172852 327.8100293 38.12939453 327.85302734 C-16.08475633 329.62473162 -80.88274734 329.18485764 -123.484375 290.5078125 C-139.44446914 275.38011636 -149.1436887 256.56160247 -149.99609375 234.4765625 C-148.98889445 197.21018848 -127.41890662 163.87404292 -105.55859375 135.1640625 C-105.09420898 134.55401367 -104.62982422 133.94396484 -104.15136719 133.31542969 C-98.2650816 125.62298598 -92.11579616 118.29910267 -85.55859375 111.1640625 C-84.42919446 109.87624069 -83.30400875 108.58470828 -82.18359375 107.2890625 C-75.81284704 100.01231796 -69.37489209 92.89802707 -62.4375 86.15625 C-61.53281982 85.27227539 -60.62813965 84.38830078 -59.69604492 83.47753906 C-57.87501112 81.70527002 -56.04331886 79.94387791 -54.20043945 78.19433594 C-53.35698975 77.37223633 -52.51354004 76.55013672 -51.64453125 75.703125 C-50.50056885 74.60798584 -50.50056885 74.60798584 -49.33349609 73.49072266 C-47.17396982 70.65987184 -46.73628784 68.69733776 -46.55859375 65.1640625 C-48.11357021 62.28842062 -48.11357021 62.28842062 -50.49609375 59.6015625 C-51.34160346 58.54645095 -52.18263741 57.4877397 -53.01953125 56.42578125 C-53.44717773 55.88614746 -53.87482422 55.34651367 -54.31542969 54.79052734 C-63.53804555 42.72433196 -74.2160649 25.73495344 -72.55859375 10.1640625 C-70.52711363 6.88244077 -69.32744993 6.36036621 -65.62109375 5.4140625 C-62.55859375 5.1640625 -62.55859375 5.1640625 -60.12109375 5.4765625 C-56.57574389 5.04420276 -55.15754826 3.20597745 -52.59375 0.828125 C-36.10675155 -12.65260694 -17.98172338 -6.24042771 0 0 Z " fill="#1866FB" transform="translate(2173.55859375,173.8359375)"/>
<path d="M0 0 C35.94829045 -0.72531229 70.52010375 11.57548884 96.63671875 36.578125 C105.58623798 45.35216346 105.58623798 45.35216346 106.97265625 48.125 C107.30265625 33.935 107.63265625 19.745 107.97265625 5.125 C123.90476662 5.08489119 123.90476662 5.08489119 130.67382812 5.07617188 C135.30038595 5.07018421 139.92692407 5.06308596 144.5534668 5.04956055 C148.28169026 5.038729 152.00989259 5.0327226 155.73813057 5.03012276 C157.16355281 5.02826899 158.58897384 5.02464929 160.01438713 5.01926994 C162.00429033 5.01205607 163.99421459 5.01159192 165.98413086 5.01147461 C167.11886337 5.009254 168.25359589 5.00703339 169.42271423 5.00474548 C171.97265625 5.125 171.97265625 5.125 172.97265625 6.125 C173.06986873 7.79310152 173.09637165 9.46535321 173.09570408 11.13628483 C173.09769513 12.22857869 173.09968618 13.32087256 173.10173756 14.44626623 C173.09882472 15.66122021 173.09591188 16.87617418 173.09291077 18.12794495 C173.0941924 20.04645442 173.0941924 20.04645442 173.09549993 22.00372165 C173.0977473 25.57016609 173.09372033 29.13658077 173.08872187 32.70302141 C173.084421 36.54284885 173.08586353 40.38267449 173.08662415 44.22250366 C173.08714961 50.88069115 173.08400045 57.53886888 173.07838631 64.19705391 C173.07027437 73.8237836 173.0676564 83.45050855 173.06639832 93.07724129 C173.06420731 108.69431914 173.05754592 124.31139178 173.0480957 139.9284668 C173.03892283 155.1029457 173.03184139 170.27742319 173.02758789 185.4519043 C173.02719381 186.85390464 173.02719381 186.85390464 173.02679176 188.28422821 C173.02548676 192.97297187 173.02422304 197.66171554 173.02297986 202.35045922 C173.01260574 241.27531077 172.99416663 280.20015269 172.97265625 319.125 C151.52265625 319.125 130.07265625 319.125 107.97265625 319.125 C107.64265625 304.935 107.31265625 290.745 106.97265625 276.125 C103.34265625 280.085 99.71265625 284.045 95.97265625 288.125 C79.34913669 304.31105852 58.50399115 315.57549222 35.97265625 321.125 C35.33199219 321.28726074 34.69132813 321.44952148 34.03125 321.61669922 C-0.67047842 329.9730548 -38.46971381 323.24150786 -68.9765625 305.38037109 C-77.79574739 299.98177006 -85.53117409 293.20929221 -93.02734375 286.125 C-94.33638672 284.93003906 -94.33638672 284.93003906 -95.671875 283.7109375 C-111.81677711 268.42062964 -123.76590051 248.0509323 -131.02734375 227.125 C-131.28112793 226.40425293 -131.53491211 225.68350586 -131.79638672 224.94091797 C-142.97466946 192.53979785 -145.505932 153.71976059 -138.02734375 120.125 C-137.77791016 118.95614258 -137.77791016 118.95614258 -137.5234375 117.76367188 C-128.81014855 78.03752857 -106.17365951 43.39847868 -71.83886719 21.25878906 C-49.83478164 7.48695978 -25.82589374 1.06635948 0 0 Z M-47.484375 83.52929688 C-68.76819349 105.54053701 -76.61685716 134.69583252 -76.17578125 164.63671875 C-75.37347384 195.06521373 -64.96851866 223.05599655 -43.12182617 244.56762695 C-25.1994334 261.4276434 -2.56913938 267.99815795 21.6875 267.41015625 C44.94055644 266.42180831 65.7723717 255.13642913 81.75390625 238.6484375 C104.27528396 213.03433538 109.61147842 181.24724992 107.97265625 148.125 C106.38435337 126.05196877 97.15908192 104.98619328 82.97265625 88.125 C82.50472656 87.52429688 82.03679687 86.92359375 81.5546875 86.3046875 C70.88987098 72.98113521 54.99718238 64.99772364 38.97265625 60.125 C38.20824219 59.89039063 37.44382812 59.65578125 36.65625 59.4140625 C6.96132504 51.63816185 -25.90921609 62.45041886 -47.484375 83.52929688 Z " fill="#FFFFFF" transform="translate(918.02734375,177.875)"/>
<path d="M0 0 C28.689122 26.6902331 45.01901164 64.51368682 46.8125 103.5625 C46.96562619 108.41695627 47.03350383 113.26829763 47.0625 118.125 C47.07192627 119.29554932 47.08135254 120.46609863 47.09106445 121.67211914 C47.05594978 131.22264763 45.94752547 139.91478348 44.8125 149.5625 C-32.0775 149.5625 -108.9675 149.5625 -188.1875 149.5625 C-185.11364449 167.23371823 -185.11364449 167.23371823 -179.1875 183.5625 C-178.74664063 184.5009375 -178.30578125 185.439375 -177.8515625 186.40625 C-168.152015 205.48381303 -151.13172903 219.89434608 -130.83984375 226.53125 C-107.57245014 233.10086702 -83.0611208 232.5366374 -61.1875 221.5625 C-57.23055457 219.18833274 -53.69656707 216.55489462 -50.1875 213.5625 C-49.34703125 212.84578125 -48.5065625 212.1290625 -47.640625 211.390625 C-42.02474225 206.24475427 -42.02474225 206.24475427 -38.75268555 199.56054688 C-36.92228288 194.47795463 -34.85058043 190.52137643 -30.1875 187.5625 C-19.6720673 184.90371325 -8.25742596 185.98625011 2.48492432 186.46386719 C6.57978522 186.62854616 10.67620929 186.70082242 14.7734375 186.78125 C22.79079219 186.95207562 30.80045842 187.22450951 38.8125 187.5625 C38.02933822 189.95820681 37.24243719 192.35257651 36.45336914 194.74633789 C36.23377785 195.4193821 36.01418655 196.0924263 35.78794098 196.78586578 C34.02486779 202.11940871 31.920299 207.0672798 29.25 212 C28.82581787 212.79220947 28.40163574 213.58441895 27.96459961 214.40063477 C18.50698433 231.54909573 5.36853796 246.71768824 -10.1875 258.5625 C-11.04859375 259.23925781 -11.9096875 259.91601562 -12.796875 260.61328125 C-44.75532028 284.96032166 -87.035286 290.27793845 -126.08203125 285.9140625 C-163.91617533 280.63312814 -199.31147024 261.21484139 -222.52368164 230.63452148 C-242.66525577 203.43260978 -254.20542634 170.17579496 -254.390625 136.234375 C-254.40114647 134.93969048 -254.40114647 134.93969048 -254.41188049 133.61885071 C-254.42928556 130.85001348 -254.43573216 128.08138991 -254.4375 125.3125 C-254.43851212 123.89588577 -254.43851212 123.89588577 -254.43954468 122.45065308 C-254.42418614 108.94791314 -254.17490076 95.78821716 -251.1875 82.5625 C-250.93806641 81.39799316 -250.93806641 81.39799316 -250.68359375 80.20996094 C-245.11492314 54.81063552 -234.07939641 31.34287889 -217.1875 11.5625 C-216.42566406 10.64855469 -215.66382812 9.73460937 -214.87890625 8.79296875 C-190.40300019 -19.60955325 -152.88648189 -34.08756877 -116.25 -37.0625 C-73.57947754 -39.64148762 -32.14321131 -29.05495192 0 0 Z M-159.1875 38.5625 C-160.10144531 39.38492188 -161.01539062 40.20734375 -161.95703125 41.0546875 C-178.46976674 56.64126409 -183.7672264 74.46113201 -188.1875 96.5625 C-132.7475 96.5625 -77.3075 96.5625 -20.1875 96.5625 C-20.1875 75.41518467 -27.15815313 57.43721396 -41.69140625 41.97265625 C-60.63764248 23.67871611 -84.30925858 17.95176734 -110.0234375 18.29296875 C-128.49645084 18.86759666 -145.58753172 26.01905818 -159.1875 38.5625 Z " fill="#FFFFFF" transform="translate(3925.1875,215.4375)"/>
<path d="M0 0 C1.58914171 1.47292467 3.17287049 2.95172041 4.75 4.4375 C5.41386719 5.03691406 6.07773438 5.63632813 6.76171875 6.25390625 C27.27653677 25.52035806 39.02554133 53.36280738 44.75 80.4375 C44.91371094 81.19949707 45.07742188 81.96149414 45.24609375 82.74658203 C47.72157238 94.89637438 48.03311136 107.02203059 48.0625 119.375 C48.06617584 120.11685547 48.06985168 120.85871094 48.07363892 121.62304688 C48.07927228 123.79975491 48.06818345 125.97570758 48.05078125 128.15234375 C48.03785034 130.04134399 48.03785034 130.04134399 48.0246582 131.96850586 C47.64415772 138.15967151 46.62721506 144.29699461 45.75 150.4375 C-31.14 150.4375 -108.03 150.4375 -187.25 150.4375 C-181.55493766 178.25040534 -181.55493766 178.25040534 -167.25 201.4375 C-166.57324219 202.28828125 -165.89648438 203.1390625 -165.19921875 204.015625 C-151.3889772 220.476827 -130.41359271 229.54236741 -109.25 231.4375 C-86.22333875 232.63608497 -65.31227895 228.02875993 -47.0625 213.1875 C-41.94883746 208.51304774 -36.8260961 202.46737071 -34.28808594 195.97801208 C-32.91863779 192.89000866 -31.67328966 190.80923701 -29.25 188.4375 C-24.03948964 187.0050175 -18.91608116 187.27053287 -13.5703125 187.4609375 C-12.03193774 187.4796052 -10.49350324 187.49383208 -8.95504761 187.5038147 C-4.9190861 187.54187386 -0.88676387 187.63997459 3.14776611 187.75085449 C7.26988484 187.85343266 11.39259598 187.898882 15.515625 187.94921875 C23.59541437 188.05624609 31.67225369 188.22674626 39.75 188.4375 C32.87314871 212.1426435 20.15293964 232.07769796 2.75 249.4375 C1.9765625 250.22253906 1.203125 251.00757813 0.40625 251.81640625 C-17.34738351 268.81003833 -39.58442855 278.91627964 -63.25 284.4375 C-64.01521973 284.61684082 -64.78043945 284.79618164 -65.56884766 284.98095703 C-87.85297409 289.8901925 -115.07780044 289.87430505 -137.25 284.4375 C-138.49595947 284.13948486 -138.49595947 284.13948486 -139.76708984 283.83544922 C-162.52162886 278.24007077 -182.44616915 268.78563004 -200.25 253.4375 C-201.21679688 252.60476563 -202.18359375 251.77203125 -203.1796875 250.9140625 C-232.07819666 225.49852583 -246.70271695 190.90896391 -252.25 153.4375 C-252.3538501 152.77121582 -252.4577002 152.10493164 -252.56469727 151.41845703 C-256.63579621 121.21683915 -253.64962591 88.00529018 -243.25 59.4375 C-242.96141113 58.6444043 -242.67282227 57.85130859 -242.37548828 57.03417969 C-235.72219564 39.22249847 -226.24180872 23.33085227 -213.25 9.4375 C-212.74742676 8.89254883 -212.24485352 8.34759766 -211.72705078 7.78613281 C-203.99962706 -0.5216303 -195.79047567 -7.42857009 -186.25 -13.5625 C-185.17492188 -14.25988281 -184.09984375 -14.95726562 -182.9921875 -15.67578125 C-127.43186985 -49.49796044 -48.47242925 -43.00450278 0 0 Z M-158.25 39.4375 C-159.07886719 40.17484375 -159.90773438 40.9121875 -160.76171875 41.671875 C-174.74625753 54.77836464 -183.34923213 72.53161818 -186.25 91.4375 C-186.25 93.4175 -186.25 95.3975 -186.25 97.4375 C-131.14 97.4375 -76.03 97.4375 -19.25 97.4375 C-19.21184298 87.56189594 -19.21184298 87.56189594 -20.8125 78.125 C-20.98813477 77.40497803 -21.16376953 76.68495605 -21.34472656 75.94311523 C-24.40388325 64.27333224 -30.19934053 54.39527603 -38.25 45.4375 C-38.75660156 44.83808594 -39.26320313 44.23867188 -39.78515625 43.62109375 C-53.21315846 28.81938288 -74.36463898 20.55531453 -93.97167969 19.25732422 C-118.24103542 18.13960381 -139.91379433 22.56944027 -158.25 39.4375 Z " fill="#FFFFFF" transform="translate(3017.25,214.5625)"/>
<path d="M0 0 C3.97417597 3.67480301 7.55809172 7.5223192 10.9375 11.75 C11.75992187 12.77351563 12.58234375 13.79703125 13.4296875 14.8515625 C33.33816424 40.38728231 45.06385068 73.12723365 45.10546875 105.5859375 C45.10879715 106.50533112 45.11212555 107.42472473 45.11555481 108.37197876 C45.12059095 110.30657454 45.12296417 112.24117892 45.12280273 114.17578125 C45.12498847 117.10952279 45.14317768 120.04288732 45.16210938 122.9765625 C45.16504429 124.86718623 45.16702843 126.75781172 45.16796875 128.6484375 C45.17874702 129.94423233 45.17874702 129.94423233 45.18974304 131.26620483 C45.16661651 137.53761944 44.21205487 142.37722563 42.9375 148.75 C-33.9525 148.75 -110.8425 148.75 -190.0625 148.75 C-186.96344951 164.24525243 -183.80253599 177.01652038 -176.0625 190.75 C-175.60230469 191.59046875 -175.14210938 192.4309375 -174.66796875 193.296875 C-163.99570995 210.9657506 -145.40271039 222.36279301 -125.8125 227.5 C-103.69045652 232.87428175 -79.77213331 230.17086334 -59.875 219 C-46.98566069 210.79009668 -39.39139545 199.94201182 -32.0625 186.75 C-9.2925 186.75 13.4775 186.75 36.9375 186.75 C35.80953451 193.51779295 35.80953451 193.51779295 34.40625 196.74609375 C34.09518311 197.4618457 33.78411621 198.17759766 33.46362305 198.91503906 C33.12500244 199.66495117 32.78638184 200.41486328 32.4375 201.1875 C32.08147705 201.97737305 31.7254541 202.76724609 31.35864258 203.58105469 C16.03067133 236.83563776 -10.8810628 263.8160106 -45.37890625 276.82421875 C-55.75313144 280.51974202 -66.15166595 283.22810255 -77.0625 284.75 C-78.36058594 284.93304688 -79.65867187 285.11609375 -80.99609375 285.3046875 C-88.09349778 286.05851396 -95.24523451 285.9942827 -102.375 286 C-103.13127686 286.00067474 -103.88755371 286.00134949 -104.66674805 286.00204468 C-116.68807906 285.98503576 -128.29703338 285.41704911 -140.0625 282.75 C-140.81305664 282.58371094 -141.56361328 282.41742188 -142.33691406 282.24609375 C-154.21540984 279.51772807 -165.13076948 275.08549689 -176.0625 269.75 C-177.10277344 269.2446875 -178.14304687 268.739375 -179.21484375 268.21875 C-190.3864418 262.44862762 -199.97329598 254.35482638 -209.0625 245.75 C-209.94679688 244.93015625 -210.83109375 244.1103125 -211.7421875 243.265625 C-241.01959661 215.23229843 -254.81657535 174.36059819 -256.17431641 134.46435547 C-257.02575366 83.77052184 -245.36259161 38.30286071 -209.6875 1.0625 C-153.2615789 -53.56578114 -57.54669775 -49.63280553 0 0 Z M-134.0625 21.75 C-134.97644531 22.03875 -135.89039063 22.3275 -136.83203125 22.625 C-155.05516596 29.05331839 -171.41749344 45.1735022 -179.97094727 62.22485352 C-185.15657015 73.12404415 -187.85715277 83.69652772 -189.0625 95.75 C-133.6225 95.75 -78.1825 95.75 -21.0625 95.75 C-22.72873571 72.42270008 -28.38214675 56.01149652 -45.0625 39.75 C-45.71863281 39.08484375 -46.37476563 38.4196875 -47.05078125 37.734375 C-62.49830428 23.04765075 -84.46799573 17.34271226 -105.25 17.375 C-106.88594116 17.37741699 -106.88594116 17.37741699 -108.55493164 17.37988281 C-117.62012675 17.51651375 -125.4798676 18.82479511 -134.0625 21.75 Z " fill="#FFFFFF" transform="translate(691.0625,216.25)"/>
<path d="M0 0 C49.5 0 99 0 150 0 C150 124.74 150 249.48 150 378 C59.29069767 378 59.29069767 378 29 348 C28.13375 347.195625 27.2675 346.39125 26.375 345.5625 C25.59125 344.716875 24.8075 343.87125 24 343 C23.11248047 342.04673828 23.11248047 342.04673828 22.20703125 341.07421875 C0.83420429 316.47686471 -0.47538977 281.02964114 -0.34057617 250.20996094 C-0.33804675 247.46812698 -0.34007699 244.72630061 -0.34190369 241.98446655 C-0.34346346 236.12324611 -0.33419164 230.26212722 -0.31719017 224.40093231 C-0.29262633 215.92703978 -0.28497731 207.45319547 -0.2812262 198.9792712 C-0.27468869 185.22508539 -0.25480157 171.47095348 -0.22631836 157.71679688 C-0.19870736 144.36979433 -0.17754289 131.0228066 -0.16479492 117.67578125 C-0.16399093 116.84227536 -0.16318694 116.00876946 -0.16235858 115.15000582 C-0.15611893 108.62974765 -0.15024864 102.10948915 -0.14449489 95.58923054 C-0.11628328 63.72610419 -0.05590746 31.86311306 0 0 Z " fill="#FFFFFF" transform="translate(0,0)"/>
<path d="M0 0 C21.12 0 42.24 0 64 0 C64.33 46.53 64.66 93.06 65 141 C68.96 137.04 72.92 133.08 77 129 C106.75993988 106.60638188 141.4570829 98.57258354 178.3828125 103.31640625 C191.83825095 105.21802533 203.810405 109.02523873 216 115 C216.98613281 115.47308594 217.97226563 115.94617188 218.98828125 116.43359375 C246.34121656 130.40694565 264.13059361 156.09879814 273.4609375 184.71875 C279.06186457 203.08154401 280.15178587 221.44892528 280.11352539 240.49462891 C280.11324299 242.4665222 280.11340228 244.4384156 280.1139679 246.41030884 C280.11425382 251.74013449 280.10839025 257.06993746 280.10139394 262.39975786 C280.09512624 267.97844864 280.0945539 273.55713998 280.09336853 279.13583374 C280.09026527 289.68946396 280.08206546 300.24308377 280.07201904 310.79670942 C280.06082665 322.81605827 280.05533958 334.83540764 280.05032361 346.85476041 C280.03988199 371.56984736 280.02154903 396.28492006 280 421 C259.21 421 238.42 421 217 421 C216.98018066 415.61647217 216.96036133 410.23294434 216.93994141 404.6862793 C216.87288464 386.85281925 216.79534425 369.01941599 216.71247292 351.18602276 C216.66250657 340.37899353 216.61606283 329.57197128 216.578125 318.76489258 C216.54502112 309.33743717 216.50509066 299.91003864 216.45720994 290.48264629 C216.43212637 285.49821147 216.41029325 280.51381348 216.39665604 275.52933311 C216.38366883 270.82205823 216.36144184 266.1149109 216.33261681 261.40770721 C216.32366929 259.69510352 216.31788152 257.98247937 216.31578636 256.26985359 C216.27553704 228.32556351 213.46608987 200.01551511 193 179 C178.22891152 164.63638983 158.1121034 159.79003357 138 160 C118.18782218 160.74284546 100.10948313 167.27547291 85.6015625 181.15625 C74.31428634 193.49429362 68.65777766 208.44352874 66.36296082 224.84819031 C66.23495061 225.76110043 66.10694041 226.67401056 65.97505111 227.61458462 C64.76008153 236.87748841 64.55804108 246.03718123 64.56762695 255.36645508 C64.55857548 257.19219612 64.54824022 259.01793117 64.53674316 260.84365845 C64.50954368 265.72450741 64.49994003 270.60523999 64.49388909 275.48615479 C64.48440722 280.6150575 64.45819727 285.74387647 64.43388367 290.87272644 C64.39048169 300.55119404 64.36177416 310.22964515 64.33856028 319.90817994 C64.31136627 330.9411541 64.26746449 341.97404292 64.22227156 353.00695574 C64.12980266 375.67126965 64.06015486 398.3355757 64 421 C42.88 421 21.76 421 0 421 C0 282.07 0 143.14 0 0 Z " fill="#FFFFFF" transform="translate(3332,76)"/>
<path d="M0 0 C27.45258794 24.58172907 39.67033971 56.74839614 42.390625 93.140625 C42.70429936 99.8766096 42.64549186 106.61846213 42.61767578 113.35986328 C42.61710998 115.31323236 42.61743152 117.26660187 42.61856079 119.2199707 C42.61912871 124.46257762 42.60746644 129.70509082 42.59341288 134.94767618 C42.58081083 140.44890764 42.57972762 145.95014183 42.57736206 151.4513855 C42.57117489 161.84185131 42.55480192 172.23227444 42.53466308 182.62272155 C42.51221749 194.46329464 42.50128898 206.3038699 42.49127221 218.14445901 C42.47043289 242.47654336 42.43379167 266.80856931 42.390625 291.140625 C21.270625 291.140625 0.150625 291.140625 -21.609375 291.140625 C-21.63124878 282.54193359 -21.63124878 282.54193359 -21.65356445 273.76953125 C-21.70396322 254.80248204 -21.7704192 235.83551398 -21.84508991 216.86854553 C-21.88996035 205.37200846 -21.92939502 193.87550176 -21.95581055 182.37890625 C-21.97886169 172.35266903 -22.01233866 162.32652863 -22.05807656 152.30036831 C-22.08191312 146.99687221 -22.10070438 141.69347144 -22.10698891 136.3899231 C-22.11308331 131.38631234 -22.1332384 126.3829452 -22.16365051 121.37942505 C-22.17236151 119.55429788 -22.17616793 117.72913878 -22.17438316 115.9039917 C-22.16004288 94.4505515 -25.56116521 73.7889797 -38.609375 56.140625 C-39.37314453 55.08488281 -39.37314453 55.08488281 -40.15234375 54.0078125 C-50.77120606 40.63591182 -67.9781258 33.00867648 -84.57128906 30.89013672 C-106.00487461 28.56262325 -128.19567511 32.01882818 -145.63671875 45.4765625 C-163.39106253 60.34456683 -170.59391701 81.5305375 -172.609375 104.140625 C-172.73917643 106.86885754 -172.76378489 109.59112049 -172.76759338 112.32215881 C-172.77253136 113.09347293 -172.77746934 113.86478704 -172.78255695 114.65947431 C-172.79778116 117.21577063 -172.80625115 119.77204215 -172.81469727 122.32836914 C-172.82428768 124.17203993 -172.83429843 126.01570858 -172.84469604 127.859375 C-172.87162514 132.84420647 -172.89269931 137.82904728 -172.91269803 142.81391072 C-172.93463196 148.03094114 -172.96198427 153.24794312 -172.98875427 158.46495056 C-173.03858132 168.33506533 -173.08355703 178.20519597 -173.12677664 188.07534164 C-173.1762346 199.31598406 -173.23112088 210.55659794 -173.28645623 221.79721272 C-173.40012287 244.91165812 -173.50627852 268.02612987 -173.609375 291.140625 C-194.729375 291.140625 -215.849375 291.140625 -237.609375 291.140625 C-237.609375 187.520625 -237.609375 83.900625 -237.609375 -22.859375 C-216.489375 -22.859375 -195.369375 -22.859375 -173.609375 -22.859375 C-173.279375 -11.639375 -172.949375 -0.419375 -172.609375 11.140625 C-169.144375 7.180625 -169.144375 7.180625 -165.609375 3.140625 C-122.52056351 -38.47716021 -45.10967536 -37.93992564 0 0 Z " fill="#FFFFFF" transform="translate(1622.609375,205.859375)"/>
<path d="M0 0 C88.77 0 177.54 0 269 0 C269 17.49 269 34.98 269 53 C235.01 53 201.02 53 166 53 C166 165.86 166 278.72 166 395 C144.88 395 123.76 395 102 395 C102 282.14 102 169.28 102 53 C68.34 53 34.68 53 0 53 C0 35.51 0 18.02 0 0 Z " fill="#FFFFFF" transform="translate(1725,102)"/>
<path d="M0 0 C21.45 0 42.9 0 65 0 C65 25.41 65 50.82 65 77 C89.42 77 113.84 77 139 77 C139 94.82 139 112.64 139 131 C114.58 131 90.16 131 65 131 C65.06290548 154.5572342 65.13810957 178.11432453 65.23571491 201.67143822 C65.28064329 212.6098878 65.32006482 223.54830504 65.34643555 234.48681641 C65.36943954 244.02297802 65.40286448 253.55903702 65.44870156 263.09511721 C65.47260131 268.14244069 65.49135139 273.18966274 65.49761391 278.23704147 C65.50367942 282.99276633 65.52373227 287.7482318 65.55427551 292.50386047 C65.56303225 294.24442872 65.56678324 295.9850309 65.56500816 297.72562027 C65.39391711 314.52694762 65.39391711 314.52694762 73 329 C79.54217876 333.0805454 85.54460289 335.07149434 93.24926758 335.20532227 C94.80152039 335.23559509 94.80152039 335.23559509 96.38513184 335.26647949 C97.46073364 335.28295532 98.53633545 335.29943115 99.64453125 335.31640625 C101.14083069 335.34438293 101.14083069 335.34438293 102.6673584 335.3729248 C106.38231823 335.44105944 110.09741926 335.50131205 113.8125 335.5625 C122.124375 335.706875 130.43625 335.85125 139 336 C139 354.15 139 372.3 139 391 C123.50017346 391.12032643 123.50017346 391.12032643 116.7734375 391.14648438 C112.22515048 391.16425644 107.67704852 391.1850246 103.12890625 391.22631836 C74.48519848 391.4794499 45.81656268 390.89816512 23 371 C22.39671875 370.50242187 21.7934375 370.00484375 21.171875 369.4921875 C5.86664306 355.77263274 1.18237713 332.52818661 0 313 C-0.13701171 307.01434813 -0.12679752 301.03110502 -0.11352539 295.04418945 C-0.11324286 293.2494863 -0.11340253 291.45478304 -0.1139679 289.66007996 C-0.11425332 284.8179003 -0.10839796 279.97574572 -0.10139394 275.13357186 C-0.09511779 270.06204625 -0.09455324 264.99051999 -0.09336853 259.91899109 C-0.09026774 250.32870797 -0.0820713 240.73843633 -0.07201904 231.14815825 C-0.06081893 220.22429152 -0.05533765 209.30042423 -0.05032361 198.37655318 C-0.03988758 175.9176943 -0.02155774 153.45885115 0 131 C-11.88 131 -23.76 131 -36 131 C-36 113.18 -36 95.36 -36 77 C-24.12 77 -12.24 77 0 77 C0 51.59 0 26.18 0 0 Z " fill="#FFFFFF" transform="translate(3136,106)"/>
<path d="M0 0 C0 22.44 0 44.88 0 68 C-11.88 68.495 -11.88 68.495 -24 69 C-43.68025388 70.8450238 -61.24113961 76.01349719 -75 91 C-89.37292859 110.21050962 -90.12506671 135.59417174 -90.20532227 158.58862305 C-90.2149184 160.3439201 -90.22492945 162.09921492 -90.23532104 163.85450745 C-90.26218832 168.58922789 -90.28329545 173.32395812 -90.30332303 178.05871177 C-90.32529568 183.01814763 -90.35262882 187.97755397 -90.37937927 192.93696594 C-90.42915449 202.31473154 -90.47414916 211.69251366 -90.51740164 221.07031137 C-90.56690425 231.75236581 -90.62177379 242.43439061 -90.67708123 253.11641634 C-90.79066817 275.07758452 -90.89684897 297.03878015 -91 319 C-112.12 319 -133.24 319 -155 319 C-155 215.38 -155 111.76 -155 5 C-133.88 5 -112.76 5 -91 5 C-90.67 18.86 -90.34 32.72 -90 47 C-86.7 42.71 -83.4 38.42 -80 34 C-61.66876491 12.90526213 -36.40477979 2.33080113 -8.82421875 0.1484375 C-5.88645125 -0.00596798 -2.94182238 0 0 0 Z " fill="#FFFFFF" transform="translate(4188,178)"/>
<path d="M0 0 C0 22.44 0 44.88 0 68 C-12.375 68.495 -12.375 68.495 -25 69 C-43.27463762 71.22861434 -62.02377439 75.55395585 -74.80859375 90.05078125 C-88.42299985 108.9542372 -90.12908246 131.24870041 -90.20532227 153.82055664 C-90.21491312 155.62481911 -90.22492389 157.4290794 -90.23532104 159.2333374 C-90.26224538 164.11073399 -90.28332209 168.98814012 -90.30332303 173.86556935 C-90.32525994 178.97049126 -90.35261077 184.07538415 -90.37937927 189.18028259 C-90.42920233 198.83790123 -90.47417951 208.49553607 -90.51740164 218.15318626 C-90.56686303 229.1519957 -90.62174802 240.15077601 -90.67708123 251.14955723 C-90.79074174 273.76634559 -90.89689933 296.38316087 -91 319 C-112.12 319 -133.24 319 -155 319 C-155 215.38 -155 111.76 -155 5 C-134.21 5 -113.42 5 -92 5 C-89.84543031 7.15456969 -90.73973374 12.0711627 -90.68359375 15.06640625 C-90.66281265 15.97502914 -90.64203156 16.88365204 -90.62062073 17.81980896 C-90.55502328 20.73395946 -90.4961932 23.64820304 -90.4375 26.5625 C-90.39432446 28.53321291 -90.35071049 30.50391626 -90.30664062 32.47460938 C-90.19933157 37.31630988 -90.09809325 42.15810437 -90 47 C-89.20662231 45.89700562 -89.20662231 45.89700562 -88.3972168 44.77172852 C-87.34014526 43.30884399 -87.34014526 43.30884399 -86.26171875 41.81640625 C-85.56780029 40.85420166 -84.87388184 39.89199707 -84.15893555 38.90063477 C-68.61426594 18.01561615 -46.16653038 5.41282289 -20.58984375 1.3359375 C-13.66955765 0.4382835 -6.99060069 0 0 0 Z " fill="#FFFFFF" transform="translate(1328,178)"/>
<path d="M0 0 C1.70703125 1.19921875 1.70703125 1.19921875 3 3 C3.29296875 5.48046875 3.29296875 5.48046875 3.1875 8.1875 C3.14689453 9.53908203 3.14689453 9.53908203 3.10546875 10.91796875 C3.07066406 11.60503906 3.03585938 12.29210937 3 13 C3.86044922 12.96519531 3.86044922 12.96519531 4.73828125 12.9296875 C16.88609248 12.67161564 31.36784414 13.1844409 43 17 C45 19 45 19 45.08203125 22.15234375 C44.94861328 24.02599609 44.94861328 24.02599609 44.8125 25.9375 C44.73644531 27.18402344 44.66039063 28.43054688 44.58203125 29.71484375 C44 33 44 33 42.88671875 34.94140625 C37.53038064 37.94672225 29.513871 35.46176042 23.6875 34.5625 C21.90006637 34.29081009 20.1123044 34.02127135 18.32421875 33.75390625 C17.1499231 33.57323608 17.1499231 33.57323608 15.9519043 33.38891602 C11.6470518 32.82174787 7.32050542 32.43205054 3 32 C3.495 44.375 3.495 44.375 4 57 C6.990625 57.556875 9.98125 58.11375 13.0625 58.6875 C29.28785686 61.87166836 45.95910857 65.77540381 56 80 C59.42155632 85.84975759 59.91300864 91.38286119 59 98 C55.7877218 109.43571039 49.87756147 115.83965551 39.7265625 121.58984375 C28.14332556 127.58060096 16.15758927 131.66902996 3 131 C3.04640625 131.90363281 3.0928125 132.80726563 3.140625 133.73828125 C3.17671875 134.91777344 3.2128125 136.09726562 3.25 137.3125 C3.29640625 138.48425781 3.3428125 139.65601563 3.390625 140.86328125 C3 144 3 144 1.17578125 145.89453125 C-1.75414571 147.38316559 -3.75769102 147.41391178 -7 147 C-8.671875 145.86328125 -8.671875 145.86328125 -10 144 C-10.29296875 141.08203125 -10.29296875 141.08203125 -10.1875 137.8125 C-10.14689453 136.18248047 -10.14689453 136.18248047 -10.10546875 134.51953125 C-10.07066406 133.68808594 -10.03585938 132.85664063 -10 132 C-11.61056274 132.00785522 -11.61056274 132.00785522 -13.25366211 132.01586914 C-17.27367301 132.03410016 -21.29368033 132.04549758 -25.3137207 132.05493164 C-27.04679989 132.05993075 -28.77987493 132.06673224 -30.51293945 132.07543945 C-33.01775138 132.08770027 -35.52250708 132.09327266 -38.02734375 132.09765625 C-39.17166115 132.10539818 -39.17166115 132.10539818 -40.33909607 132.11329651 C-53.15493961 132.11460445 -53.15493961 132.11460445 -58.5625 129.99609375 C-60.99397448 126.61978 -60.3107529 123.07374914 -60 119.0625 C-59.96777344 118.25103516 -59.93554688 117.43957031 -59.90234375 116.60351562 C-59.67039163 112.97852037 -59.345521 110.56751825 -57.4375 107.43359375 C-51.73185812 104.07787168 -44.25929903 106.32180453 -38.0625 107.4375 C-29.02055941 108.97691616 -20.16358427 109.60839383 -11 110 C-11 100.43 -11 90.86 -11 81 C-13.64 81 -16.28 81 -19 81 C-34.29777725 79.07298718 -48.75779622 74.24220378 -59.8125 63.1875 C-64.30288147 56.64437272 -65.8505691 49.87895589 -65 42 C-62.83403363 32.79464292 -56.54795604 26.54208128 -48.78515625 21.5859375 C-36.60611199 14.97966723 -23.59039873 13.35717211 -10 13 C-10.03480469 12.31292969 -10.06960937 11.62585938 -10.10546875 10.91796875 C-10.13253906 10.01691406 -10.15960937 9.11585938 -10.1875 8.1875 C-10.23970703 6.84751953 -10.23970703 6.84751953 -10.29296875 5.48046875 C-10 3 -10 3 -8.70703125 1.19921875 C-5.86182713 -0.79958597 -3.35035393 -0.35896649 0 0 Z " fill="#E5EEFE" transform="translate(2196,296)"/>
<path d="M0 0 C-1.82458821 3.89356413 -4.34349587 6.81563651 -7.1875 10 C-24.35194708 29.64290561 -39.00220557 51.42656891 -52 74 C-52.41523926 74.71768555 -52.83047852 75.43537109 -53.25830078 76.17480469 C-62.65575281 92.59610551 -69.95510644 110.49628804 -74 129 C-74.33451172 130.35351562 -74.33451172 130.35351562 -74.67578125 131.734375 C-79.07457607 152.44162681 -76.89877206 175.56959351 -66.0625 193.94921875 C-44.38066459 226.02026696 -6.36733453 238.51097049 30 246 C44.88840921 248.80193192 59.91914671 250.61910259 75 252 C75 252.33 75 252.66 75 253 C25.02803184 258.79385138 -37.57574972 253.72421931 -79.5 223.5625 C-96.37711192 210.15522787 -110.13509981 192.33211951 -113.59765625 170.62890625 C-118.12042092 129.83620359 -93.64091058 92.04850712 -70 61 C-69.53561523 60.38995117 -69.07123047 59.77990234 -68.59277344 59.15136719 C-62.70648785 51.45892348 -56.55720241 44.13504017 -50 37 C-48.87060071 35.71217819 -47.745415 34.42064578 -46.625 33.125 C-42.42827352 28.33009757 -38.17958201 23.5948387 -33.80957031 18.95751953 C-32.47295289 17.51162119 -31.15768173 16.04592216 -29.85449219 14.56982422 C-27.48129142 11.88593001 -25.05755452 9.2551089 -22.625 6.625 C-21.8712207 5.74932373 -21.11744141 4.87364746 -20.34082031 3.97143555 C-13.77432999 -2.96767594 -8.92895379 -2.63987973 0 0 Z " fill="#1255FA" transform="translate(2138,248)"/>
<path d="M0 0 C12.5 2.5 12.5 2.5 18 8 C18.56910225 11.38466075 18.52301142 14.61109949 18 18 C15.2336741 21.79381837 12.50063696 23.74400829 8 25 C4.04 25.495 4.04 25.495 0 26 C0 17.42 0 8.84 0 0 Z " fill="#1C69FC" transform="translate(2199,379)"/>
<path d="M0 0 C0 7.59 0 15.18 0 23 C-11.55913978 20.68817204 -11.55913978 20.68817204 -15 18 C-17.53418918 14.19871623 -17.68690436 12.50303968 -17 8 C-12.76587834 2.48812565 -6.91190499 0 0 0 Z " fill="#1C69FC" transform="translate(2186,329)"/>
</svg>
