<svg width="200" height="200" viewBox="0 0 200 200" fill="none" xmlns="http://www.w3.org/2000/svg">
<g clip-path="url(#clip0_104_111)">
<path d="M200 100C200 155.229 155.229 200 100 200C44.7715 200 0 155.229 0 100C0 44.7715 44.7715 0 100 0C155.229 0 200 44.7715 200 100Z" fill="white"/>
<path d="M192.358 100.637C192.358 151.293 151.293 192.357 100.638 192.357C49.9823 192.357 8.91797 151.293 8.91797 100.637C8.91797 49.9823 49.9823 8.91797 100.638 8.91797C151.293 8.91797 192.358 49.9823 192.358 100.637Z" fill="#1967FC"/>
<path fill-rule="evenodd" clip-rule="evenodd" d="M99.9995 164.331C135.529 164.331 164.331 135.53 164.331 100.001C164.331 64.471 135.529 35.6692 99.9995 35.6692C64.47 35.6692 35.6682 64.471 35.6682 100.001C35.6682 135.53 64.47 164.331 99.9995 164.331ZM99.9995 173.249C140.454 173.249 173.248 140.455 173.248 100.001C173.248 59.5465 140.454 26.752 99.9995 26.752C59.5455 26.752 26.751 59.5465 26.751 100.001C26.751 140.455 59.5455 173.249 99.9995 173.249Z" fill="white"/>
<path fill-rule="evenodd" clip-rule="evenodd" d="M57.3252 44.9401L64.3832 39.4902L99.7702 85.319L109.898 73.026H121.024L99.6457 99.7485L57.3252 44.9401Z" fill="white"/>
<path fill-rule="evenodd" clip-rule="evenodd" d="M148.671 53.3633L155.785 58.7398L115.286 112.324V170.701H106.368V109.333L148.671 53.3633Z" fill="white"/>
<path fill-rule="evenodd" clip-rule="evenodd" d="M85.0803 112.181L56.0498 73.8848L67.2458 73.8853L93.9978 109.183V171.828L85.0803 162.911V112.181Z" fill="white"/>
</g>
<defs>
<clipPath id="clip0_104_111">
<rect width="200" height="200" fill="white"/>
</clipPath>
</defs>
</svg>
